<?xml version="1.0" standalone="no"?>
<!DOCTYPE svg PUBLIC "-//W3C//DTD SVG 20010904//EN"
 "http://www.w3.org/TR/2001/REC-SVG-20010904/DTD/svg10.dtd">
<svg version="1.0" xmlns="http://www.w3.org/2000/svg"
 width="445.000000pt" height="291.000000pt" viewBox="0 0 445.000000 291.000000"
 preserveAspectRatio="xMidYMid meet">
<metadata>
Created by potrace 1.15, written by Peter Selinger 2001-2017
</metadata>
<g transform="translate(0.000000,291.000000) scale(0.100000,-0.100000)"
fill="#000000" stroke="none">
<path d="M2175 2224 c-194 -29 -311 -64 -486 -144 -244 -113 -366 -141 -849
-195 -302 -33 -394 -60 -463 -133 -50 -52 -56 -144 -11 -164 32 -15 69 11 84
59 15 46 44 96 83 139 35 41 63 47 342 74 449 44 590 75 795 172 250 119 437
161 720 161 167 -1 327 -19 501 -58 144 -32 436 -117 572 -166 556 -201 720
-240 678 -160 -19 34 -115 62 -241 71 -122 8 -114 6 -599 175 -156 54 -387
115 -557 146 -93 17 -165 22 -329 24 -115 2 -223 1 -240 -1z"/>
<path d="M2177 2109 c-137 -14 -396 -95 -502 -157 -31 -18 -11 -14 41 8 133
58 418 120 544 120 53 0 187 -24 198 -35 3 -3 -1 -12 -9 -21 -16 -15 -92 -27
-83 -12 3 4 0 8 -5 8 -6 0 -11 -5 -11 -10 0 -7 -6 -7 -19 0 -24 12 -201 14
-201 1 0 -12 -48 -21 -52 -9 -3 9 -135 -31 -181 -55 -15 -8 -24 -17 -20 -20 3
-4 -3 -7 -15 -7 -12 0 -22 -4 -22 -9 0 -5 -33 -12 -73 -16 -41 -3 -98 -12
-128 -20 l-54 -13 83 5 c47 4 82 2 82 -3 0 -11 -36 -44 -48 -44 -14 0 -63 -70
-56 -82 4 -6 3 -8 -3 -5 -12 8 -46 -27 -36 -36 3 -4 -2 -7 -11 -7 -10 0 -16
-6 -14 -12 11 -31 -20 -36 -258 -43 -251 -6 -284 -9 -284 -25 0 -6 95 -11 242
-12 l241 -3 2 -22 c1 -13 -3 -23 -10 -23 -10 0 -37 -57 -33 -70 1 -3 -5 -16
-12 -30 -17 -32 -21 -70 -7 -70 6 0 2 -7 -9 -15 -16 -13 -17 -16 -4 -25 13 -8
13 -10 -2 -10 -16 0 -18 -12 -18 -120 0 -118 2 -126 33 -121 5 1 6 -3 2 -9 -3
-6 -11 -8 -16 -4 -11 7 -6 -20 26 -121 17 -56 19 -71 8 -73 -9 -2 -13 -20 -13
-53 l0 -49 34 0 c22 0 36 6 40 17 5 12 10 13 18 5 8 -8 8 -15 -2 -27 -11 -13
-10 -15 3 -10 8 4 18 1 23 -6 5 -8 3 -10 -6 -4 -28 17 95 -131 126 -153 19
-12 34 -27 34 -32 0 -6 6 -10 14 -10 8 0 16 -6 19 -13 3 -7 45 -32 93 -56 49
-24 96 -47 104 -51 51 -25 197 -42 323 -38 119 5 141 9 230 41 122 44 243 123
322 210 79 86 85 94 85 107 0 6 5 8 10 5 12 -7 13 7 3 20 -5 6 -4 7 1 3 6 -5
28 -7 50 -6 37 1 38 2 9 5 -25 3 -33 9 -33 24 0 14 7 19 28 20 26 0 26 1 5 9
-13 5 -23 14 -23 20 0 5 10 10 23 10 17 0 19 2 7 9 -8 6 -19 7 -25 4 -5 -4 0
5 11 18 25 28 76 187 63 195 -5 3 -9 16 -9 29 0 30 23 24 38 -11 8 -16 20 -24
38 -24 l25 0 -31 55 c-17 30 -27 55 -21 55 20 0 41 33 41 65 0 36 -28 65 -62
65 -10 0 -19 7 -19 15 -3 29 -4 33 -13 42 -5 4 -6 3 -2 -4 3 -6 1 -15 -4 -18
-8 -5 -9 4 -5 27 4 23 -1 52 -16 93 -13 33 -22 63 -21 67 1 4 -5 5 -12 2 -11
-4 -13 0 -9 15 5 21 10 21 322 23 267 1 294 3 171 8 -80 4 -224 8 -321 9 -134
1 -180 4 -195 15 -22 16 -18 19 51 32 l40 8 -55 6 c-66 8 -102 19 -95 31 6 9
-87 107 -150 157 l-40 32 37 0 c43 0 381 -35 515 -54 51 -7 93 -11 93 -9 0 2
-7 14 -16 28 -12 18 -13 28 -5 44 15 27 15 27 -22 49 -49 31 -174 69 -315 96
-149 29 -373 59 -398 54 -12 -2 -23 -22 -34 -62 -14 -52 -19 -59 -42 -60 -15
-1 -24 2 -22 6 3 4 1 8 -5 8 -6 0 -5 11 2 29 16 43 4 57 -65 74 -84 21 -156
26 -251 16z m578 -54 c284 -50 408 -79 498 -117 51 -22 53 -24 33 -51 -14 -18
-20 -18 -143 -3 -70 8 -204 20 -298 26 -202 14 -196 13 -214 24 -10 7 -12 5
-6 -5 4 -8 -2 -3 -15 9 -13 14 -30 22 -40 19 -11 -3 -17 0 -15 7 27 89 39 116
49 116 6 0 74 -11 151 -25z"/>
<path d="M393 1310 c-63 -38 -66 -152 -6 -199 32 -26 108 -28 142 -5 36 26 10
42 -31 20 -31 -17 -37 -17 -70 -3 -50 21 -67 71 -41 125 22 45 60 61 105 44
18 -6 37 -8 46 -3 12 7 10 11 -9 25 -32 22 -97 20 -136 -4z"/>
<path d="M627 1323 c-2 -4 -2 -59 1 -120 3 -87 8 -113 18 -113 10 0 14 15 14
55 l0 55 60 0 60 0 0 -55 c0 -42 3 -55 15 -55 13 0 15 20 15 120 0 100 -2 120
-15 120 -11 0 -15 -12 -15 -50 l0 -50 -64 0 -64 0 1 46 c2 42 -13 69 -26 47z"/>
<path d="M972 1318 c-5 -7 -13 -23 -17 -36 -4 -13 -22 -57 -41 -98 -19 -41
-34 -79 -34 -85 0 -21 31 -7 45 21 14 27 20 30 65 30 45 0 51 -3 65 -30 9 -18
23 -30 35 -30 18 0 16 6 -16 83 -20 45 -43 99 -51 120 -16 38 -33 47 -51 25z"/>
<path d="M1170 1232 c0 -93 2 -100 26 -123 18 -16 37 -24 64 -24 27 0 46 8 64
24 24 23 26 30 26 123 0 90 -2 98 -19 98 -18 0 -20 -8 -20 -91 0 -100 -8 -119
-52 -119 -45 0 -59 31 -59 127 0 67 -3 83 -15 83 -12 0 -15 -18 -15 -98z"/>
<path d="M3276 1298 c-8 -18 -30 -68 -50 -112 -42 -91 -42 -96 -17 -96 11 0
23 12 31 30 12 28 16 30 65 30 49 0 53 -2 65 -30 8 -18 20 -30 31 -30 11 0 19
3 18 8 0 4 -22 56 -48 117 -52 122 -72 139 -95 83z"/>
<path d="M3440 1323 c0 -5 19 -57 43 -118 33 -84 47 -110 61 -110 14 0 29 27
62 110 24 61 44 114 44 118 0 5 -8 7 -17 5 -11 -2 -29 -36 -53 -97 l-36 -94
-21 59 c-12 33 -26 76 -33 97 -8 26 -17 37 -31 37 -10 0 -19 -3 -19 -7z"/>
<path d="M3719 1323 c-1 -4 -2 -59 -3 -120 l-1 -113 78 0 c62 0 77 3 77 15 0
12 -13 15 -60 15 l-60 0 0 40 0 40 56 0 c77 0 69 24 -10 28 -54 3 -58 4 -52
25 3 12 6 25 6 29 0 4 26 8 58 10 43 2 57 7 57 18 0 12 -16 16 -72 18 -40 2
-74 -1 -74 -5z"/>
</g>
</svg>
